<?xml version="1.0" standalone="no"?>
<!DOCTYPE svg PUBLIC "-//W3C//DTD SVG 20010904//EN"
 "http://www.w3.org/TR/2001/REC-SVG-20010904/DTD/svg10.dtd">
<svg version="1.0" xmlns="http://www.w3.org/2000/svg"
 width="750.000000pt" height="728.000000pt" viewBox="0 0 750.000000 728.000000"
 preserveAspectRatio="xMidYMid meet">
<metadata>
Created by potrace 1.16, written by Peter Selinger 2001-2019
</metadata>
<g transform="translate(0.000000,728.000000) scale(0.100000,-0.100000)"
fill="#000000" stroke="none">
<path d="M2942 6659 l-803 -592 -81 -136 c-44 -75 -85 -138 -89 -142 -5 -3
-75 -20 -156 -39 l-148 -34 -770 -560 c-928 -674 -885 -642 -885 -668 0 -12
138 -452 307 -977 l306 -956 66 -73 c36 -40 90 -99 120 -132 l53 -59 -22 -193
-22 -193 222 -655 c122 -360 264 -781 317 -935 52 -154 97 -283 101 -287 4 -3
367 -9 807 -12 440 -3 890 -9 1000 -12 l200 -5 139 72 139 72 137 -72 137 -71
1016 0 c1004 0 1016 0 1035 20 10 11 37 77 59 148 22 70 90 282 151 472 287
896 412 1309 412 1360 0 28 -7 101 -16 161 l-16 109 68 76 c163 179 146 150
223 385 38 118 120 372 181 564 336 1055 360 1135 354 1162 -3 16 -8 35 -10
45 -3 9 -131 112 -286 230 -154 117 -331 251 -392 298 -61 47 -239 183 -396
301 -157 119 -336 255 -398 302 -62 47 -121 88 -130 91 -9 3 -84 16 -166 30
-82 14 -149 26 -151 28 -1 2 -37 62 -80 133 -43 72 -84 138 -93 147 -8 10 -69
57 -136 105 -66 48 -161 117 -211 153 -49 37 -207 152 -350 255 -143 104 -291
212 -330 240 -233 172 -585 425 -596 430 -8 3 -352 -244 -817 -586z m965 379
c220 -160 708 -515 808 -588 50 -37 212 -155 360 -263 224 -163 275 -204 299
-244 16 -26 52 -84 80 -129 l50 -81 96 -13 c162 -21 195 -37 388 -183 95 -73
242 -184 325 -247 173 -131 470 -357 662 -503 72 -55 181 -137 243 -184 62
-46 119 -94 126 -106 24 -38 29 -102 13 -154 -9 -27 -45 -142 -82 -258 -37
-115 -100 -313 -140 -440 -40 -126 -101 -318 -135 -425 -34 -107 -93 -292
-131 -411 -38 -118 -69 -222 -69 -230 0 -8 -47 -68 -105 -134 -103 -117 -106
-121 -101 -160 3 -22 9 -87 12 -145 l6 -105 -282 -900 c-155 -495 -286 -913
-291 -929 -9 -31 -42 -72 -71 -87 -11 -6 -405 -9 -994 -9 l-976 0 -126 64
-126 64 -120 -60 -120 -60 -951 7 c-522 4 -965 8 -984 11 -19 2 -40 9 -47 16
-6 7 -48 121 -92 253 -80 238 -334 988 -472 1388 -39 115 -69 216 -66 225 3 9
12 73 21 142 8 69 17 134 20 145 3 16 -24 52 -105 143 -94 106 -112 131 -129
185 -10 34 -60 190 -111 347 -140 437 -250 780 -340 1060 -45 140 -90 282
-101 314 -24 74 -24 128 -1 154 9 11 184 140 387 287 204 148 408 296 455 330
47 34 177 128 290 210 113 81 228 165 255 185 156 115 206 150 216 150 6 0 69
14 139 31 l128 30 74 127 c84 144 46 110 507 450 118 86 280 205 360 265 698
514 772 567 790 567 9 0 80 -46 158 -102z"/>
<path d="M3638 7013 c-58 -43 -288 -213 -513 -378 -224 -165 -471 -347 -550
-405 -79 -58 -194 -143 -257 -189 l-114 -84 -74 -129 c-41 -71 -81 -133 -90
-138 -8 -4 -71 -20 -140 -35 -79 -17 -140 -36 -165 -53 -35 -22 -416 -296
-560 -402 -27 -20 -117 -86 -200 -145 -145 -105 -591 -428 -727 -528 -59 -42
-68 -53 -68 -80 0 -17 68 -242 151 -501 83 -259 207 -646 276 -861 69 -214
132 -411 139 -437 11 -37 42 -78 128 -176 l114 -128 -23 -172 -23 -173 63
-187 c35 -103 97 -286 138 -407 42 -121 147 -431 235 -690 88 -259 166 -485
172 -503 l12 -32 156 0 c87 0 521 -3 966 -7 l808 -6 127 62 127 63 129 -65
130 -64 967 -5 966 -6 25 27 c26 27 39 64 162 461 36 118 70 226 75 240 5 14
27 86 50 160 46 149 183 586 261 834 55 175 58 201 39 363 l-12 102 105 118
c86 98 107 128 120 173 9 30 39 127 68 215 28 88 61 194 74 235 13 41 111 352
219 690 173 542 196 620 191 660 -6 43 -11 48 -93 110 -47 36 -266 202 -487
369 -836 636 -948 718 -1000 735 -39 12 -227 46 -258 46 -3 0 -42 60 -86 133
l-81 133 -237 174 c-543 396 -677 494 -1118 814 -185 134 -202 146 -207 146
-2 0 -52 -35 -110 -77z m539 -952 c301 -46 602 -140 855 -267 665 -334 1179
-918 1418 -1611 311 -900 157 -1890 -411 -2643 -468 -620 -1135 -1008 -1919
-1117 -172 -23 -538 -23 -709 0 -657 92 -1214 366 -1666 822 -439 443 -712
998 -802 1635 -27 191 -24 576 6 770 97 630 364 1163 800 1601 485 486 1071
759 1786 833 108 11 515 -3 642 -23z"/>
<path d="M3810 5813 c26 -11 29 -25 12 -60 -13 -28 -14 -41 -4 -78 17 -64 15
-88 -8 -103 -18 -11 -22 -8 -40 29 -31 59 -31 139 -2 178 l23 31 -58 0 c-92
-1 -256 -18 -392 -41 -412 -69 -829 -260 -1171 -536 -124 -100 -293 -273 -395
-405 -295 -382 -467 -801 -526 -1283 -17 -145 -15 -455 5 -605 115 -863 641
-1596 1411 -1970 260 -126 480 -192 800 -241 90 -14 500 -18 585 -6 30 4 73
10 95 13 337 48 689 177 988 362 455 281 832 738 1031 1250 104 266 154 528
162 842 8 300 -17 504 -96 782 -172 602 -580 1134 -1124 1465 -353 215 -757
342 -1171 368 -44 3 -93 7 -110 10 -16 3 -23 2 -15 -2z m176 -34 c3 -6 -1 -28
-11 -49 -16 -35 -16 -41 0 -95 9 -31 15 -58 13 -59 -2 -1 -13 -10 -25 -20
l-23 -19 -20 47 c-22 53 -26 126 -8 159 21 40 59 59 74 36z m180 -23 c3 -8 -2
-28 -11 -46 -15 -29 -15 -36 0 -86 17 -59 8 -98 -22 -92 -45 9 -70 137 -38
198 20 39 60 54 71 26z m181 -27 c9 -9 8 -22 -4 -51 -12 -31 -13 -47 -4 -83
16 -62 14 -83 -8 -95 -16 -8 -22 -4 -38 23 -24 40 -36 118 -23 151 10 27 45
66 58 66 4 0 13 -5 19 -11z m169 -54 c4 -9 1 -29 -6 -46 -11 -25 -11 -43 0
-97 12 -60 11 -66 -6 -79 -26 -19 -28 -18 -51 31 -31 64 -26 136 12 176 32 34
43 37 51 15z m181 -71 c3 -9 -1 -31 -10 -49 -14 -29 -14 -39 -1 -90 14 -53 14
-59 -2 -76 -9 -10 -20 -19 -24 -19 -14 0 -50 93 -50 131 0 77 67 156 87 103z
m-938 -77 c-2 -2 -299 -108 -659 -236 -360 -128 -689 -245 -730 -259 l-74 -27
-127 -215 c-353 -600 -649 -1106 -653 -1115 -2 -5 -6 -8 -8 -5 -10 10 64 275
107 387 84 214 175 380 304 554 405 543 1040 884 1711 918 117 6 140 6 129 -2z
m1097 -2 c4 -9 0 -29 -9 -46 -13 -27 -13 -38 1 -90 14 -55 13 -61 -3 -79 -10
-11 -21 -20 -25 -20 -14 0 -50 98 -50 135 0 73 67 150 86 100z m-814 -11 c346
-43 709 -179 990 -371 111 -75 200 -144 195 -150 -2 -1 -37 10 -78 26 -75 29
-739 276 -1149 427 l-225 83 72 1 c39 0 127 -7 195 -16z m983 -118 c-13 -31
-14 -46 -3 -97 11 -55 11 -61 -8 -80 l-21 -20 -18 38 c-43 90 -37 170 16 207
19 13 26 14 36 3 11 -11 11 -20 -2 -51z m150 -55 c3 -5 -2 -28 -11 -49 -12
-32 -13 -48 -5 -79 16 -56 13 -87 -8 -100 -16 -10 -21 -7 -38 25 -40 73 -37
142 9 200 12 14 44 16 53 3z m-1281 -81 c-1 -14 -4 -55 -8 -92 -5 -53 -3 -70
10 -82 42 -43 70 -8 79 99 7 77 17 107 32 92 3 -3 2 -47 -2 -98 -6 -78 -11
-96 -31 -116 -31 -30 -74 -30 -103 1 -22 24 -23 29 -16 126 6 86 10 101 24 98
10 -2 16 -13 15 -28z m-310 5 c0 -5 -24 -14 -53 -18 -51 -9 -52 -9 -49 -40 3
-31 4 -32 46 -29 33 3 42 0 42 -12 0 -11 -9 -16 -27 -16 -45 0 -57 -13 -49
-52 l6 -35 48 8 c67 11 72 11 72 -5 0 -15 -17 -20 -102 -31 -55 -7 -50 -15
-68 124 -14 115 -16 109 33 114 64 6 102 3 101 -8z m1736 -22 c0 -8 -9 -28
-21 -45 -18 -24 -20 -38 -15 -82 6 -42 4 -57 -9 -70 -27 -26 -42 -19 -54 27
-21 77 9 166 64 187 24 9 35 4 35 -17z m-1117 -5 c48 -19 50 -102 2 -114 -14
-3 -25 -7 -25 -9 0 -1 9 -28 20 -59 18 -53 18 -57 2 -54 -11 2 -24 24 -35 60
-22 65 -43 80 -57 42 -6 -14 -10 -34 -10 -45 0 -19 -25 -37 -36 -27 -3 3 6 56
18 117 l23 112 35 -6 c19 -3 47 -11 63 -17z m167 -50 c0 -6 -12 -49 -27 -94
-29 -90 -25 -114 23 -114 27 0 33 10 63 100 12 36 24 71 26 77 2 7 11 10 19 7
12 -5 9 -20 -15 -91 -34 -102 -50 -123 -96 -123 -41 0 -73 30 -73 68 0 41 51
182 67 182 7 0 13 -5 13 -12z m1100 -42 c0 -7 -15 -25 -33 -39 -25 -19 -36
-38 -45 -78 -14 -60 -27 -79 -53 -79 -19 0 -23 15 -20 70 3 39 30 93 59 117
31 26 92 32 92 9z m-2503 -150 c29 -57 49 -107 46 -110 -14 -13 -24 -4 -45 39
-12 25 -26 45 -30 45 -12 0 -68 -29 -68 -36 0 -2 9 -22 20 -44 23 -45 25 -60
8 -60 -10 0 -92 143 -116 200 -2 4 4 10 13 13 10 5 21 -6 35 -33 23 -45 28
-47 71 -25 l29 16 -20 40 c-19 36 -20 59 -2 59 4 0 31 -47 59 -104z m1688 83
c4 -6 1 -62 -6 -125 -11 -94 -16 -114 -29 -111 -10 2 -14 12 -12 29 2 23 -4
31 -39 48 l-41 21 -23 -21 c-38 -36 -42 -3 -4 38 123 135 139 147 154 121z
m923 -60 c1 -9 -12 -31 -31 -50 -22 -22 -36 -49 -40 -74 -4 -22 -11 -46 -15
-53 -11 -17 -52 -24 -54 -9 -12 96 27 176 97 198 27 9 39 5 43 -12z m-752 -27
c9 -5 8 -32 -2 -102 -8 -52 -16 -101 -19 -107 -10 -28 4 -9 51 67 27 44 55 80
62 80 8 0 12 -6 10 -13 -6 -24 -113 -186 -123 -186 -31 -1 -33 15 -16 119 10
58 17 106 17 107 -1 1 -25 -33 -54 -77 -28 -44 -56 -80 -63 -80 -16 0 -6 23
54 117 51 81 61 90 83 75z m698 -297 c170 -205 297 -429 390 -686 35 -98 100
-344 94 -359 -2 -5 -81 129 -177 298 -96 169 -266 468 -378 664 -112 197 -203
361 -203 365 0 15 193 -184 274 -282z m-2799 194 c44 -34 89 -68 100 -75 30
-22 -1 -39 -32 -18 -21 13 -26 12 -58 -8 -30 -19 -35 -27 -31 -50 5 -25 -8
-47 -21 -34 -3 3 -20 54 -38 115 -23 78 -30 112 -22 120 6 6 14 11 17 11 3 0
42 -27 85 -61z m3001 -31 c4 -7 -7 -24 -29 -42 -27 -23 -39 -43 -47 -81 -13
-57 -25 -75 -51 -75 -16 0 -19 8 -19 49 0 65 23 117 63 141 36 22 72 26 83 8z
m-3213 -63 c-1 -5 -17 -12 -35 -15 -28 -4 -33 -9 -36 -37 -3 -26 5 -40 41 -77
46 -49 66 -55 91 -30 18 17 20 32 7 53 -8 12 -12 12 -25 2 -27 -22 -40 -1 -15
25 31 33 40 31 78 -16 29 -37 30 -40 11 -40 -13 0 -20 -7 -20 -19 0 -22 -35
-51 -63 -51 -57 0 -137 86 -137 148 0 49 25 74 69 70 20 -2 35 -7 34 -13z
m1286 -92 c1 -9 19 -13 54 -13 l52 0 -42 -36 -42 -35 15 -41 c8 -23 12 -43 10
-46 -3 -2 -20 8 -39 22 -19 14 -38 26 -42 26 -4 0 -24 -12 -43 -27 l-35 -26 7
26 c3 15 9 38 12 51 5 21 -1 29 -38 53 l-43 28 50 3 51 3 18 52 19 52 18 -40
c10 -22 18 -46 18 -52z m1388 6 c9 -9 7 -23 -7 -58 -10 -25 -28 -71 -40 -101
l-21 -55 70 70 c48 47 74 66 81 59 7 -7 -17 -36 -73 -92 -79 -76 -85 -81 -100
-64 -14 15 -12 25 24 111 21 51 39 96 39 99 0 4 -31 -25 -70 -63 -49 -49 -73
-66 -80 -59 -8 8 13 34 70 87 45 43 85 77 89 77 4 0 12 -5 18 -11z m650 -6 c2
-6 -11 -25 -29 -42 -23 -21 -37 -47 -48 -88 -13 -51 -18 -58 -43 -61 -26 -3
-27 -1 -27 42 0 58 30 127 66 148 31 19 75 20 81 1z m-3439 -105 c45 -39 82
-74 82 -78 0 -4 -6 -13 -13 -19 -10 -8 -37 -3 -108 19 -52 16 -96 30 -99 30
-2 0 27 -29 65 -64 39 -35 67 -67 63 -71 -9 -10 -38 10 -118 84 -58 53 -63 61
-50 75 13 14 25 12 109 -14 52 -17 96 -29 97 -27 2 1 -26 27 -61 57 -58 50
-79 80 -57 80 5 0 45 -32 90 -72z m3539 -65 c2 -6 -11 -26 -30 -43 -22 -19
-38 -45 -42 -67 -11 -58 -26 -83 -52 -83 -21 0 -23 5 -23 44 0 60 32 131 67
150 31 18 74 17 80 -1z m-571 -20 c53 -69 67 -94 57 -104 -7 -7 -21 3 -43 35
l-33 45 -28 -20 -29 -20 26 -34 c34 -45 11 -61 -25 -16 l-26 31 -29 -24 -30
-23 32 -44 c35 -48 39 -59 18 -59 -13 0 -80 82 -88 107 -3 10 158 141 176 142
5 1 15 -7 22 -16z m-3203 -39 c3 -4 -8 -27 -25 -52 l-31 -45 23 -19 c23 -19
40 -23 40 -10 1 17 38 54 49 48 8 -6 6 -18 -10 -43 -23 -37 -23 -37 25 -64 14
-8 21 -8 27 2 5 8 19 29 30 47 11 17 24 32 29 32 23 0 17 -24 -21 -79 l-42
-61 -26 17 c-15 10 -59 40 -98 67 l-72 48 40 59 c39 57 49 66 62 53z m1786
-249 c85 -115 176 -239 203 -275 l50 -65 -79 -5 -78 -5 2 -52 c3 -60 -5 -66
-29 -23 l-17 30 -106 0 c-85 0 -105 3 -105 15 0 8 8 19 18 24 14 8 17 23 15
102 -1 72 -5 96 -17 105 -9 6 -16 19 -16 28 0 9 -4 16 -10 16 -5 0 -10 -11
-10 -24 0 -13 -5 -26 -11 -28 -17 -6 -18 -189 -1 -195 6 -3 12 -13 12 -23 0
-21 -42 -30 -142 -30 -64 0 -98 -14 -98 -41 0 -5 -4 -9 -10 -9 -5 0 -10 25
-10 55 l0 54 -86 3 -85 3 168 235 c93 129 189 263 214 297 43 62 44 62 59 41
8 -12 84 -117 169 -233z m2091 145 c0 -12 -13 -26 -36 -38 -29 -15 -42 -31
-58 -73 -19 -47 -26 -54 -53 -57 l-31 -3 10 47 c20 92 68 143 136 144 25 0 32
-4 32 -20z m-530 -70 c21 -21 26 -65 11 -89 -15 -23 -30 -3 -24 34 5 30 3 35
-21 41 -32 8 -111 -29 -132 -62 -19 -28 -11 -61 16 -69 28 -9 41 3 34 31 -9
35 17 31 39 -5 l17 -30 -43 -25 c-50 -29 -61 -32 -54 -12 3 8 -4 18 -18 24
-44 20 -45 82 -2 123 30 29 95 59 130 59 15 0 36 -9 47 -20z m-3396 -81 c53
-28 96 -54 96 -57 0 -4 -4 -13 -9 -21 -7 -10 -29 -11 -114 -4 -58 4 -104 6
-102 3 2 -3 40 -23 84 -45 45 -21 81 -45 81 -52 0 -20 -10 -17 -114 38 -70 37
-96 56 -94 68 3 14 18 16 113 14 l110 -3 -79 43 c-71 38 -105 67 -78 67 5 0
53 -23 106 -51z m3970 15 c28 -11 18 -42 -18 -59 -22 -11 -40 -30 -51 -53 -32
-72 -49 -90 -78 -79 -13 5 -14 12 -4 49 15 61 53 117 90 133 37 17 40 17 61 9z
m-451 -175 c25 -58 27 -79 8 -79 -5 0 -16 20 -25 45 -10 25 -22 47 -27 50 -7
5 -42 -8 -57 -20 -2 -2 4 -17 13 -34 15 -30 13 -51 -4 -51 -5 0 -14 14 -21 30
-17 40 -24 44 -59 25 l-30 -15 21 -50 c16 -38 18 -54 10 -62 -8 -8 -19 6 -42
56 -16 37 -30 71 -30 75 0 7 187 90 206 90 6 1 23 -27 37 -60z m525 -21 c2
-12 -9 -25 -31 -38 -21 -13 -41 -36 -52 -63 -24 -55 -44 -77 -68 -77 -18 0
-19 5 -14 45 12 84 82 159 142 152 11 -1 21 -10 23 -19z m-4244 4 c3 -5 -3
-32 -14 -59 -18 -47 -18 -51 -2 -56 9 -3 24 -8 32 -11 12 -5 19 3 29 29 7 19
19 35 28 35 15 0 15 -3 -4 -62 -3 -12 3 -21 20 -29 36 -16 51 -7 65 40 13 40
28 59 40 47 5 -6 -38 -146 -45 -146 -1 0 -52 18 -112 41 l-110 41 21 51 c11
29 23 60 25 70 6 18 18 22 27 9z m3795 -192 c17 -65 9 -94 -29 -110 -25 -11
-34 -10 -56 5 -26 17 -27 17 -69 -25 -35 -34 -43 -39 -49 -25 -4 12 8 31 38
62 26 26 42 51 39 59 -6 17 -11 17 -62 -1 -37 -13 -43 -13 -48 1 -3 8 -4 16
-2 18 5 4 200 63 215 65 5 0 16 -22 23 -49z m514 31 c14 -14 0 -29 -39 -46
-19 -8 -42 -28 -52 -46 -34 -62 -50 -77 -77 -71 -28 5 -28 16 1 77 39 81 127
126 167 86z m-4296 -101 c113 -26 119 -28 106 -41 -6 -6 -39 -3 -97 11 -48 11
-92 20 -99 20 -7 -1 32 -24 86 -52 54 -27 96 -55 94 -62 -2 -6 -28 -12 -58
-13 -30 -2 -79 -6 -109 -9 l-55 -7 98 -22 c98 -22 116 -29 104 -42 -7 -7 -226
36 -231 46 -2 3 0 16 5 29 8 21 14 22 99 22 49 0 90 3 90 8 0 4 -36 25 -80 47
-74 37 -94 58 -73 78 10 10 25 9 120 -13z m1253 -437 l-5 -448 -82 -3 -83 -3
0 310 c0 342 5 317 -64 320 -16 0 -30 2 -32 4 -5 5 258 277 265 273 3 -2 4
-206 1 -453z m1330 317 l139 -139 -52 -3 -52 -3 -3 -305 c-1 -204 -6 -306 -13
-311 -6 -3 -44 -7 -85 -8 l-74 -2 0 138 c0 76 -3 281 -7 456 -3 174 -3 317 1
317 3 0 69 -63 146 -140z m-436 -22 c30 -45 53 -84 51 -87 -4 -8 -665 -15
-665 -7 0 3 18 44 39 91 l40 85 240 0 240 0 55 -82z m2185 47 c33 -17 47 -45
29 -56 -7 -5 -30 -6 -50 -2 -27 4 -52 -1 -88 -16 -82 -35 -128 -3 -65 44 58
45 125 56 174 30z m-4576 -1105 c42 -244 74 -446 71 -449 -6 -7 -107 212 -149
324 -50 135 -100 339 -120 488 -25 200 -19 554 12 677 4 16 26 -88 59 -285 29
-170 86 -510 127 -755z m4357 807 c8 -105 8 -190 0 -285 -9 -118 -17 -182 -47
-357 -9 -52 -73 -257 -110 -350 -38 -97 -133 -289 -139 -282 -3 3 93 536 252
1397 16 87 18 92 25 60 5 -19 13 -102 19 -183z m225 147 c34 -16 50 -38 39
-55 -3 -5 -27 -7 -53 -3 -37 5 -56 2 -89 -15 -50 -25 -75 -27 -93 -5 -12 15
-9 20 20 43 64 49 122 61 176 35z m-2231 -70 c14 -5 16 -56 16 -465 l0 -459
-22 -5 c-13 -3 -131 -4 -263 -3 l-240 3 -3 459 c-2 361 0 461 10 468 15 9 479
11 502 2z m2252 -89 c13 -8 24 -25 24 -36 0 -19 -4 -20 -49 -14 -39 5 -59 2
-96 -14 -58 -26 -67 -26 -88 -3 -15 16 -13 19 20 42 74 50 138 59 189 25z
m-1318 -120 c73 -74 132 -139 132 -145 0 -5 -22 -10 -50 -10 l-50 0 0 -105 0
-105 -84 0 c-60 0 -85 4 -89 13 -9 23 -8 487 0 487 5 0 68 -61 141 -135z
m-2230 -117 l-3 -243 -85 0 -85 0 -3 102 -3 102 -52 3 -52 3 134 138 c74 75
138 137 143 137 5 0 7 -109 6 -242z m-768 142 c0 -18 -7 -20 -55 -20 l-55 0 0
-40 0 -40 55 0 c42 0 55 -3 55 -15 0 -11 -12 -15 -47 -15 -27 0 -78 -3 -115
-7 -65 -6 -68 -5 -68 16 0 18 6 21 43 21 24 0 46 2 48 5 3 2 3 20 1 39 -4 34
-6 35 -51 38 -25 2 -46 8 -46 13 0 11 73 21 173 23 56 2 62 0 62 -18z m4299
-85 c60 -30 48 -73 -16 -58 -31 8 -47 5 -92 -14 -29 -13 -61 -21 -71 -18 -33
10 -31 33 5 60 58 45 125 56 174 30z m-4289 -120 c0 -8 -9 -19 -20 -25 -39
-21 -18 -110 26 -110 8 0 14 -7 14 -15 0 -19 7 -19 -123 2 -151 24 -156 36
-40 99 49 26 95 51 103 55 23 13 40 10 40 -6z m4296 -76 c22 -20 23 -25 10
-38 -12 -12 -22 -12 -51 -4 -31 10 -43 8 -88 -13 -62 -29 -69 -29 -90 -6 -15
16 -14 20 19 46 20 15 48 32 62 37 45 14 111 4 138 -22z m-56 -167 c23 -11 35
-24 35 -37 0 -18 -6 -20 -49 -17 -33 2 -64 -3 -99 -18 -40 -17 -55 -20 -73
-11 -32 14 -30 25 8 53 67 49 123 58 178 30z m-2810 -64 l0 -33 -425 3 -425 2
0 24 c0 12 3 26 7 29 3 4 195 7 425 7 l418 0 0 -32z m1590 -8 l0 -30 -425 0
c-369 0 -426 2 -431 15 -4 8 -4 22 0 30 5 13 62 15 431 15 l425 0 0 -30z
m-1590 -90 l0 -30 -505 0 -505 0 0 30 0 30 505 0 505 0 0 -30z m1735 0 l0 -25
-498 -3 c-436 -2 -498 0 -503 13 -4 8 -4 22 0 30 5 13 67 15 503 13 l498 -3 0
-25z m1060 0 c8 -7 15 -21 15 -33 0 -18 -4 -19 -50 -13 -39 5 -58 2 -89 -14
-47 -23 -70 -25 -96 -7 -17 13 -16 15 17 41 66 50 160 62 203 26z m-4125 -30
c48 -48 11 -115 -81 -145 -75 -25 -120 -10 -134 45 -19 76 157 158 215 100z
m3486 -21 c55 -22 102 -44 107 -48 4 -4 1 -15 -6 -26 -13 -17 -20 -17 -102 -7
-49 7 -90 10 -92 8 -2 -1 26 -24 61 -50 80 -59 86 -66 76 -93 -9 -21 -9 -21
-107 19 -104 43 -117 50 -112 66 2 6 46 -7 98 -29 51 -21 96 -39 98 -39 3 0
-33 30 -81 66 -120 92 -116 102 30 80 54 -9 100 -14 102 -12 2 2 -38 21 -87
41 -52 22 -91 44 -91 51 0 8 2 14 4 14 2 0 48 -18 102 -41z m584 -114 c40 -36
20 -61 -36 -46 -30 8 -45 6 -95 -16 -60 -26 -60 -26 -80 -6 -20 20 -20 20 16
47 20 16 48 32 63 37 40 12 110 4 132 -16z m-1940 -30 l0 -35 -445 0 -445 0 0
35 0 35 445 0 445 0 0 -35z m1231 -141 c83 -96 82 -94 70 -113 -7 -11 -29 -8
-124 13 -64 14 -119 26 -121 26 -3 0 -3 7 1 15 4 11 16 15 36 13 25 -3 34 3
50 31 16 27 18 37 9 52 -14 22 -16 49 -3 49 5 0 42 -39 82 -86z m628 11 c40
-20 58 -53 36 -62 -9 -3 -32 -1 -52 5 -29 9 -45 7 -94 -11 -58 -21 -59 -21
-74 -1 -20 26 -20 26 24 54 48 30 118 37 160 15z m-3784 -100 c23 -32 35 -59
29 -64 -23 -20 -174 -121 -181 -121 -14 0 -85 109 -78 120 11 17 19 11 48 -35
l29 -45 29 17 28 17 -20 33 c-29 47 -13 65 21 23 l27 -33 31 22 31 22 -35 49
c-24 33 -31 50 -22 53 18 6 21 4 63 -58z m3725 -30 c33 -17 56 -50 40 -60 -5
-3 -32 -3 -59 1 -34 4 -64 1 -100 -11 -41 -13 -55 -14 -66 -5 -23 19 -18 38
18 57 62 34 123 41 167 18z m-602 -152 c-8 -10 -18 -6 -48 17 l-38 30 -26 -32
-26 -33 38 -32 c26 -22 34 -35 26 -42 -12 -13 -198 125 -189 140 10 15 24 11
59 -16 41 -31 50 -31 70 0 22 33 21 36 -24 69 -30 23 -37 33 -29 42 9 11 31
-2 104 -58 72 -55 91 -75 83 -85z m-1800 119 c47 -32 179 -102 193 -102 8 0
63 27 123 60 61 33 116 60 124 60 8 0 36 -13 61 -28 25 -16 54 -31 64 -35 9
-3 17 -10 17 -15 0 -4 -69 -33 -152 -63 -140 -49 -160 -54 -238 -54 -79 0 -96
4 -239 58 -85 31 -157 59 -159 62 -6 6 -11 4 68 42 76 37 102 40 138 15z
m1142 -41 l0 -31 -270 0 c-224 0 -270 2 -270 14 0 8 -8 18 -17 22 -23 11 90
18 355 22 l202 3 0 -30z m-1370 -9 c0 -12 -6 -24 -12 -26 -7 -3 -133 -7 -280
-10 -285 -6 -275 -7 -261 42 l6 24 273 -3 274 -4 0 -23z m-996 -22 c30 -11 49
-44 48 -83 -1 -35 -4 -39 -24 -32 -9 4 -13 15 -10 33 7 48 -55 80 -72 37 -3
-8 -1 -29 5 -47 13 -48 11 -79 -8 -100 -24 -27 -68 -23 -93 9 -24 30 -24 78 0
78 10 0 14 -8 12 -23 -4 -28 14 -52 39 -52 28 0 31 15 17 81 l-12 61 27 24
c32 27 36 28 71 14z m-8 -525 c290 -247 535 -456 543 -463 31 -26 -31 -1 -174
68 -149 72 -300 168 -430 273 -97 79 -274 257 -350 352 -60 76 -185 257 -185
269 0 9 -45 47 596 -499z m1191 447 c239 -83 230 -83 456 -7 l188 63 -3 -32
c-3 -31 -4 -31 -173 -88 -226 -75 -238 -75 -461 -1 -168 55 -172 57 -182 90
-6 18 -6 33 -2 33 5 0 84 -26 177 -58z m1073 19 l0 -31 -211 0 -210 0 3 23 c3
20 10 23 68 27 36 3 129 6 208 8 l142 4 0 -31z m-1264 -5 c8 -11 14 -23 14
-27 0 -9 -424 -24 -444 -16 -9 4 -13 13 -11 22 3 8 7 21 9 28 3 10 49 13 211
13 193 -1 208 -2 221 -20z m2498 13 c60 -16 106 -77 85 -110 -7 -11 -12 -12
-26 -1 -63 45 -81 52 -125 52 -46 0 -68 16 -68 49 0 20 75 26 134 10z m-179
-36 c-10 -16 -24 -37 -32 -48 -20 -30 -16 -35 28 -29 57 8 125 -13 154 -48 50
-59 17 -109 -35 -53 -15 16 -38 26 -69 30 -76 10 -91 15 -91 30 0 34 -21 17
-91 -73 -41 -53 -124 -146 -184 -207 l-111 -110 66 -1 c77 0 118 -20 144 -69
30 -55 0 -74 -47 -31 -24 22 -39 27 -137 39 -8 1 -19 12 -25 25 -13 28 -17 28
-57 -6 -64 -55 -184 -140 -269 -190 -87 -53 -313 -164 -359 -177 -22 -6 -23
-5 -10 8 15 15 189 160 525 437 104 85 281 232 394 327 113 95 210 172 215
173 4 0 0 -12 -9 -27z m22 -275 c22 -18 45 -68 39 -84 -8 -21 -22 -17 -58 15
-26 22 -46 29 -91 33 -58 5 -77 16 -77 48 0 11 11 17 37 18 21 2 39 4 41 6 5
6 94 -23 109 -36z m-1112 -207 c36 -81 43 -106 33 -112 -9 -6 -20 6 -38 41
l-25 48 -32 -13 c-36 -15 -39 -27 -18 -65 18 -32 19 -60 2 -60 -7 0 -23 21
-34 48 -12 26 -33 72 -47 104 -21 47 -23 57 -10 62 10 4 21 -8 36 -38 l21 -44
34 16 c38 18 38 18 17 67 -12 31 -13 39 -3 46 8 4 14 7 15 6 1 -1 23 -49 49
-106z m947 62 c26 -12 58 -59 58 -83 0 -23 -31 -21 -60 4 -22 18 -47 27 -91
32 -57 6 -79 21 -79 53 0 23 123 19 172 -6z m-2497 -9 c68 -26 32 -192 -48
-225 -24 -10 -32 -9 -55 8 -39 29 -42 88 -7 152 33 60 68 81 110 65z m1345
-144 c57 -76 68 -96 54 -99 -10 -2 -23 4 -29 13 -24 32 -102 9 -107 -32 -2
-14 -9 -27 -15 -30 -10 -3 -13 25 -13 116 0 65 3 122 7 126 15 15 35 -3 103
-94z m-181 -47 c25 -127 25 -123 8 -123 -9 0 -19 32 -31 96 -10 52 -20 93 -23
91 -2 -3 -7 -49 -11 -102 -5 -65 -11 -100 -20 -103 -7 -2 -30 34 -58 92 -26
53 -48 95 -50 94 -1 -2 3 -32 11 -68 25 -127 25 -130 11 -130 -14 0 -61 205
-50 221 16 27 42 4 79 -71 22 -43 43 -79 46 -80 4 0 9 39 11 86 4 84 13 103
44 104 6 0 21 -48 33 -107z m-829 80 c0 -5 7 -53 15 -108 8 -55 15 -106 15
-112 0 -25 -28 -13 -38 16 -8 22 -18 30 -48 36 -33 6 -41 4 -53 -14 -13 -20
-41 -29 -41 -14 0 4 25 51 56 105 40 71 60 98 75 98 10 0 19 -3 19 -7z m1869
-116 c28 -14 59 -54 63 -82 5 -29 -30 -31 -60 -2 -20 18 -43 26 -87 31 -60 7
-75 16 -75 49 0 14 10 17 68 17 37 0 78 -6 91 -13z m-197 -111 c43 -8 88 -55
88 -92 0 -32 -26 -31 -60 1 -20 19 -41 26 -89 32 -62 6 -72 13 -72 48 0 11 56
24 81 19 8 -1 32 -5 52 -8z m-168 -100 c37 -15 76 -60 76 -86 0 -31 -28 -31
-64 0 -21 19 -45 30 -64 30 -75 0 -118 27 -97 60 9 15 110 12 149 -4z m-98
-108 c13 -13 26 -35 29 -50 6 -25 4 -28 -17 -28 -14 0 -35 11 -48 25 -18 19
-34 25 -64 25 -52 0 -90 19 -94 47 -3 19 2 22 40 25 57 4 126 -16 154 -44z
m-631 32 c193 0 324 -4 315 -9 -8 -5 -53 -19 -100 -32 l-84 -23 39 -12 c93
-27 145 -78 145 -144 0 -44 -34 -41 -56 5 -12 26 -31 42 -73 63 -46 22 -57 32
-59 56 -3 26 -6 28 -35 22 -18 -4 -49 -9 -69 -13 -47 -7 -49 -18 -6 -27 45 -9
104 -52 118 -86 15 -37 9 -95 -10 -95 -8 0 -23 17 -33 38 -10 21 -32 46 -48
55 -62 34 -81 54 -76 79 l4 24 -71 -7 c-39 -4 -74 -8 -78 -11 -4 -2 13 -24 36
-49 47 -49 63 -95 47 -137 -21 -54 -49 -45 -57 19 -3 28 -16 50 -46 81 -30 30
-39 47 -35 63 5 20 4 21 -106 14 -137 -8 -339 9 -508 42 -126 24 -315 76 -327
90 -4 4 184 4 418 0 234 -3 574 -6 755 -6z m437 -51 c44 -22 68 -55 71 -95 3
-42 -32 -44 -58 -2 -15 23 -33 35 -70 46 -62 17 -75 28 -75 59 0 24 2 25 47
18 26 -4 64 -16 85 -26z"/>
<path d="M3545 3000 l0 -440 237 0 238 0 0 440 0 440 -237 0 -238 0 0 -440z
m425 -400 c0 -19 -7 -20 -190 -20 -183 0 -190 1 -190 20 0 19 7 20 190 20 183
0 190 -1 190 -20z"/>
</g>
</svg>
